<?xml version="1.0" standalone="no"?>
<!DOCTYPE svg PUBLIC "-//W3C//DTD SVG 20010904//EN"
 "http://www.w3.org/TR/2001/REC-SVG-20010904/DTD/svg10.dtd">
<svg version="1.0" xmlns="http://www.w3.org/2000/svg"
 width="948.000000pt" height="860.000000pt" viewBox="0 0 948.000000 860.000000"
 preserveAspectRatio="xMidYMid meet">
<metadata>
Created by potrace 1.16, written by Peter Selinger 2001-2019
</metadata>
<g transform="translate(0.000000,860.000000) scale(0.100000,-0.100000)"
fill="#000000" stroke="none">
<path d="M0 4300 l0 -4300 4740 0 4740 0 0 4300 0 4300 -4740 0 -4740 0 0
-4300z m4737 4245 c140 -23 313 -81 313 -105 0 -6 -24 -29 -54 -52 -55 -42
-62 -58 -25 -58 29 0 24 -33 -18 -109 l-36 -67 29 -100 c37 -127 37 -235 1
-539 -46 -381 -60 -622 -61 -995 0 -382 12 -518 60 -672 53 -167 159 -346 287
-484 190 -203 333 -261 466 -188 110 59 378 405 523 674 98 181 187 422 227
617 58 283 53 686 -15 1019 -5 28 -2 33 52 68 139 92 578 304 854 411 511 199
1111 336 1623 371 l97 7 -14 -39 c-58 -161 -185 -464 -195 -464 -4 0 -34 16
-67 36 -174 106 -310 153 -459 161 -174 10 -276 -40 -305 -147 -34 -124 33
-434 124 -579 103 -163 280 -300 516 -400 58 -25 107 -46 109 -48 6 -4 -30
-69 -86 -156 l-44 -68 -52 46 c-129 117 -286 167 -426 134 -76 -17 -192 -81
-258 -142 -106 -99 -151 -219 -140 -373 12 -172 62 -288 168 -395 111 -112
185 -139 524 -189 336 -50 365 -61 365 -138 0 -54 -15 -166 -31 -234 -14 -59
-28 -61 -99 -12 -81 56 -185 101 -259 114 -156 26 -367 -46 -624 -214 -180
-117 -200 -265 -69 -520 116 -226 347 -465 508 -525 111 -42 237 -37 364 15
42 17 66 22 73 15 7 -7 6 -43 -2 -111 -6 -55 -11 -148 -11 -205 l0 -104 -122
59 c-68 33 -165 70 -216 84 -524 139 -1412 -79 -1660 -407 -125 -167 -177
-345 -177 -617 0 -147 4 -192 23 -279 30 -131 61 -220 122 -341 52 -104 79
-142 280 -400 75 -96 204 -266 288 -377 l152 -202 -25 -70 c-24 -65 -265 -600
-292 -646 -6 -11 -14 -17 -18 -14 -3 4 -17 54 -30 111 -56 251 -345 911 -544
1246 -163 275 -444 599 -691 799 -248 201 -769 514 -811 487 -14 -9 -45 -73
-68 -143 -32 -97 -28 -144 19 -239 47 -94 77 -124 329 -327 339 -273 435 -371
508 -523 43 -91 54 -179 42 -334 -14 -167 -80 -321 -217 -503 -80 -107 -180
-191 -297 -250 -108 -54 -202 -79 -356 -95 -62 -6 -117 -14 -121 -18 -12 -12
-36 -123 -43 -197 -14 -152 38 -305 138 -406 29 -30 90 -80 136 -111 99 -67
94 -75 -36 -59 -241 29 -400 131 -492 314 -52 103 -79 208 -92 362 -17 193
-11 177 -82 212 -221 109 -414 366 -473 630 -13 59 -16 107 -12 217 5 128 8
149 37 221 38 98 106 206 193 305 l65 75 -28 50 c-64 111 -62 256 7 465 54
166 61 320 14 335 -26 8 -189 -47 -267 -91 -186 -104 -343 -280 -528 -594
-312 -528 -535 -1192 -600 -1785 -8 -76 -19 -143 -23 -147 -10 -10 -60 55
-255 335 l-166 238 70 107 c146 223 337 646 415 915 93 322 128 551 129 832 0
190 -2 218 -23 290 -75 259 -221 403 -480 473 -91 24 -110 26 -332 26 l-235 1
-91 -32 c-147 -51 -261 -118 -412 -243 -40 -33 -77 -60 -81 -60 -8 0 -131 272
-131 290 0 6 10 10 23 10 235 4 449 76 588 198 89 79 203 273 244 416 26 88
17 196 -20 265 -78 142 -280 285 -491 346 -158 46 -370 32 -599 -39 -80 -25
-112 -31 -117 -22 -9 16 -33 384 -26 391 3 4 33 -8 67 -25 68 -34 205 -70 266
-70 87 0 216 50 319 124 133 96 214 207 242 334 55 249 -82 611 -269 709 -99
51 -456 7 -636 -79 -73 -35 -198 -151 -220 -206 -8 -18 -18 -29 -22 -25 -12
12 -83 369 -76 385 3 8 34 25 69 38 333 122 572 381 698 759 34 101 40 198 15
258 -32 77 -175 228 -280 296 -143 93 -307 39 -571 -189 -120 -103 -121 -103
-133 -57 -13 52 -48 277 -61 397 -8 79 -8 101 2 108 18 11 463 10 653 -2 576
-37 1201 -229 1722 -529 l159 -91 -8 -53 c-15 -100 -21 -480 -9 -659 19 -310
74 -514 211 -793 164 -333 358 -561 565 -665 180 -90 301 -74 368 47 37 69 46
119 57 326 30 542 82 723 320 1123 107 179 167 306 223 474 47 138 107 406
107 475 l0 38 -107 -7 c-424 -26 -765 -61 -807 -82 -43 -21 -52 -18 -121 31
-67 47 -85 79 -85 144 0 42 7 54 35 65 11 4 135 11 275 15 236 7 258 9 298 30
23 12 40 25 38 30 -6 10 -13 10 -644 65 l-52 5 -24 -47 c-13 -26 -33 -58 -44
-72 -21 -25 -21 -25 -36 -5 -56 72 -86 187 -72 279 l7 46 49 0 c63 0 252 25
386 51 147 28 255 61 394 119 121 52 231 84 330 99 93 14 328 12 427 -4z"/>
<path d="M4611 2178 c-44 -16 -146 -95 -203 -157 -70 -75 -110 -153 -110 -216
0 -160 268 -423 443 -436 109 -7 116 -4 199 79 102 103 153 202 159 309 4 96
-15 148 -83 217 -112 114 -340 229 -405 204z"/>
</g>
</svg>
