<?xml version="1.0" encoding="UTF-8" standalone="no"?>
<svg
   xmlns:dc="http://purl.org/dc/elements/1.1/"
   xmlns:cc="http://creativecommons.org/ns#"
   xmlns:rdf="http://www.w3.org/1999/02/22-rdf-syntax-ns#"
   xmlns:svg="http://www.w3.org/2000/svg"
   xmlns="http://www.w3.org/2000/svg"
   xmlns:xlink="http://www.w3.org/1999/xlink"
   xmlns:sodipodi="http://sodipodi.sourceforge.net/DTD/sodipodi-0.dtd"
   xmlns:inkscape="http://www.inkscape.org/namespaces/inkscape"
   width="1100"
   height="160"
   viewBox="0 0 291.04165 42.333334"
   version="1.1"
   id="svg761"
   inkscape:version="1.0.2-2 (e86c870879, 2021-01-15)"
   sodipodi:docname="logo.svg">
  <defs
     id="defs755">
    <rect
       x="23.519718"
       y="109.84778"
       width="145.12735"
       height="36.615925"
       id="rect739" />
    <rect
       x="23.519718"
       y="109.84778"
       width="145.12735"
       height="36.615925"
       id="rect772" />
    <rect
       x="22.45064"
       y="74.300926"
       width="120.00402"
       height="22.98518"
       id="rect745" />
    <rect
       x="22.45064"
       y="74.300926"
       width="120.00402"
       height="22.98518"
       id="rect808" />
    <linearGradient
       inkscape:collect="always"
       id="linearGradient246">
      <stop
         style="stop-color:#a7ac93;stop-opacity:1"
         offset="0"
         id="stop242" />
      <stop
         style="stop-color:#454837;stop-opacity:1"
         offset="1"
         id="stop244" />
    </linearGradient>
    <radialGradient
       inkscape:collect="always"
       xlink:href="#linearGradient246"
       id="radialGradient204-0-9-7"
       cx="430.91379"
       cy="242.93138"
       fx="430.91379"
       fy="242.93138"
       r="87.548553"
       gradientTransform="matrix(-0.45807611,-0.77370215,0.66026712,-0.39091587,484.66503,654.70324)"
       gradientUnits="userSpaceOnUse" />
    <radialGradient
       inkscape:collect="always"
       xlink:href="#linearGradient246"
       id="radialGradient204-0-9-7-8"
       cx="430.91379"
       cy="242.93138"
       fx="430.91379"
       fy="242.93138"
       r="87.548553"
       gradientTransform="matrix(-0.45807611,-0.77370215,0.66026712,-0.39091587,484.66503,654.70324)"
       gradientUnits="userSpaceOnUse" />
  </defs>
  <sodipodi:namedview
     id="base"
     pagecolor="#ffffff"
     bordercolor="#666666"
     borderopacity="1.0"
     inkscape:pageopacity="0.0"
     inkscape:pageshadow="2"
     inkscape:zoom="1.979899"
     inkscape:cx="227.5362"
     inkscape:cy="175.66493"
     inkscape:document-units="mm"
     inkscape:current-layer="layer1"
     inkscape:document-rotation="0"
     showgrid="false"
     units="px"
     inkscape:window-width="1583"
     inkscape:window-height="1030"
     inkscape:window-x="128"
     inkscape:window-y="0"
     inkscape:window-maximized="0" />
  <metadata
     id="metadata758">
    <rdf:RDF>
      <cc:Work
         rdf:about="">
        <dc:format>image/svg+xml</dc:format>
        <dc:type
           rdf:resource="http://purl.org/dc/dcmitype/StillImage" />
        <dc:title></dc:title>
      </cc:Work>
    </rdf:RDF>
  </metadata>
  <g
     inkscape:label="Vrstva 1"
     inkscape:groupmode="layer"
     id="layer1">
    <text
       xml:space="preserve"
       id="text737"
       style="font-style:normal;font-variant:normal;font-weight:normal;font-stretch:normal;font-size:19.7556px;line-height:1.25;font-family:Papyrus;-inkscape-font-specification:'Papyrus, Normal';font-variant-ligatures:normal;font-variant-caps:normal;font-variant-numeric:normal;font-variant-east-asian:normal;white-space:pre;shape-inside:url(#rect739);fill:#d40000;fill-opacity:1;stroke:none;"
       transform="translate(58.219741,-106.82783)"><tspan
         x="23.519531"
         y="125.42215"><tspan
           style="font-style:normal;font-variant:normal;font-weight:normal;font-stretch:normal;font-size:19.7556px;font-family:Papyrus;-inkscape-font-specification:'Papyrus, Normal';font-variant-ligatures:normal;font-variant-caps:normal;font-variant-numeric:normal;font-variant-east-asian:normal;fill:#d40000">DraciDoupe.cz</tspan></tspan></text>
    <text
       xml:space="preserve"
       id="text743"
       style="font-style:normal;font-variant:normal;font-weight:normal;font-stretch:normal;font-size:10.5833px;line-height:1.25;font-family:Papyrus;-inkscape-font-specification:'Papyrus, Normal';font-variant-ligatures:normal;font-variant-caps:normal;font-variant-numeric:normal;font-variant-east-asian:normal;white-space:pre;shape-inside:url(#rect745);fill:#008000;fill-opacity:1;stroke:none;"
       transform="translate(82.746929,-46.579248)"><tspan
         x="22.451172"
         y="82.644215"><tspan
           style="font-style:normal;font-variant:normal;font-weight:normal;font-stretch:normal;font-size:10.5833px;font-family:Papyrus;-inkscape-font-specification:'Papyrus, Normal';font-variant-ligatures:normal;font-variant-caps:normal;font-variant-numeric:normal;font-variant-east-asian:normal;fill:#008000">máte doma draka?</tspan></tspan></text>
    <rect
       style="fill:#aa0000;fill-opacity:1;stroke:#000000;stroke-width:0.374783;stroke-opacity:1"
       id="rect173"
       width="43.751076"
       height="42.135914"
       x="248.03554"
       y="0.046333499" />
    <rect
       style="fill:#aa0000;fill-opacity:1;stroke:#000000;stroke-width:0.367714;stroke-opacity:1"
       id="rect173-9"
       width="42.925869"
       height="41.341175"
       x="1.2875038"
       y="0.65821356" />
    <path
       style="fill:#e5ff80;fill-opacity:1;stroke:#000000;stroke-width:0.405289;stroke-opacity:1"
       id="path175"
       sodipodi:type="arc"
       sodipodi:cx="269.66364"
       sodipodi:cy="20.991585"
       sodipodi:rx="21.40498"
       sodipodi:ry="20.962875"
       sodipodi:start="0"
       sodipodi:end="6.2727394"
       sodipodi:open="true"
       sodipodi:arc-type="arc"
       d="M 291.06861,20.991585 A 21.40498,20.962875 0 0 1 269.71953,41.954389 21.40498,20.962875 0 0 1 248.25895,21.101072 21.40498,20.962875 0 0 1 269.49594,0.02935274 21.40498,20.962875 0 0 1 291.06745,20.772613"
       inkscape:transform-center-x="-44.479522"
       inkscape:transform-center-y="52.284734" />
    <path
       style="fill:#e5ff80;stroke:#000000;stroke-width:0.395263;stroke-opacity:1"
       id="path175-3"
       sodipodi:type="arc"
       sodipodi:cx="22.697571"
       sodipodi:cy="21.601917"
       sodipodi:rx="20.875454"
       sodipodi:ry="20.444286"
       sodipodi:start="0"
       sodipodi:end="6.2727394"
       sodipodi:open="true"
       sodipodi:arc-type="arc"
       inkscape:transform-center-x="-43.379169"
       inkscape:transform-center-y="50.991292"
       d="M 43.573025,21.601917 A 20.875454,20.444286 0 0 1 22.752087,42.046134 20.875454,20.444286 0 0 1 1.8224016,21.708696 20.875454,20.444286 0 0 1 22.534025,1.1582583 20.875454,20.444286 0 0 1 43.571886,21.388362" />
    <g
       id="g207-1-3-0"
       transform="matrix(0.87651274,0,0,0.87651274,168.32932,-34.472237)"
       style="stroke:#000000;stroke-width:0.276242;stroke-miterlimit:4;stroke-dasharray:none;stroke-opacity:1">
      <path
         style="fill:url(#radialGradient204-0-9-7);fill-opacity:1;stroke:#000000;stroke-width:1.04406;stroke-miterlimit:4;stroke-dasharray:none;stroke-opacity:1"
         d="m 443.10975,322.80938 c -5.54003,-1.37835 -8.27136,-5.12481 -9.13677,-12.53257 l -0.46131,-3.9487 -1.45096,-0.68419 c -0.79803,-0.3763 -2.57596,-1.81367 -3.95096,-3.19416 -2.92314,-2.9348 -4.51087,-5.90254 -5.18085,-9.68391 -0.82587,-4.6612 0.3607,-8.49992 4.03949,-13.0684 l 1.71579,-2.13073 -0.73364,-1.51551 c -1.0129,-2.09236 -0.95382,-4.83892 0.1765,-8.20428 0.67803,-2.01876 0.88296,-3.28147 0.80357,-4.95134 l -0.10657,-2.24151 -1.29589,0.0369 c -1.97531,0.0562 -6.335,2.38698 -8.46785,4.52703 -2.70987,2.71903 -3.4448,3.65438 -5.67434,7.22179 -3.78133,6.05036 -6.66072,12.26854 -9.0344,19.51024 -2.01368,6.14336 -3.89289,15.02285 -3.92065,18.52548 l -0.0127,1.60714 -0.86751,-1.07143 c -1.12185,-1.38557 -6.97661,-9.76604 -6.97661,-9.9863 0,-0.0925 0.63441,-1.14974 1.40981,-2.34943 1.51392,-2.34233 4.97639,-9.24533 5.92444,-11.81137 3.10962,-8.41658 4.45146,-15.06051 4.45146,-22.04081 0,-4.08413 -0.12999,-5.30831 -0.76255,-7.18143 -1.46471,-4.33724 -4.85437,-7.27631 -9.71327,-8.4221 -3.33588,-0.78663 -9.99176,-0.69927 -12.50116,0.16409 -2.72922,0.93899 -5.65184,2.58208 -7.77047,4.36854 -0.96606,0.81459 -1.81862,1.41499 -1.89456,1.33423 -0.42877,-0.45596 -2.00085,-4.13148 -2.00085,-4.67797 0,-0.54966 0.31019,-0.64803 2.05357,-0.65131 4.50834,-0.008 9.22277,-2.49098 11.51536,-6.06367 2.76333,-4.30628 3.63976,-7.46392 2.86759,-10.33153 -0.58626,-2.17721 -3.37316,-4.84591 -6.93682,-6.6426 -2.78578,-1.4045 -2.87903,-1.42403 -7.32142,-1.53247 -4.00013,-0.0977 -4.79709,-0.012 -7.17828,0.77141 -1.47321,0.48469 -2.71323,0.84767 -2.7556,0.80662 -0.0424,-0.041 -0.18662,-1.63371 -0.32057,-3.53926 -0.21296,-3.02965 -0.17231,-3.46464 0.32381,-3.46464 0.31204,0 0.65576,0.14305 0.76382,0.31789 0.10806,0.17484 1.30128,0.58864 2.65161,0.91956 2.02813,0.49702 2.72647,0.52861 4.01506,0.18163 4.66864,-1.25714 8.31571,-4.50208 9.58253,-8.52594 1.25102,-3.97369 -0.56677,-10.39777 -3.83532,-13.5541 l -1.60906,-1.55381 -4.14028,0.16486 c -5.56992,0.2218 -8.32342,1.13952 -11.08208,3.69355 l -2.00859,1.8596 -0.61427,-2.73376 c -0.79215,-3.52542 -0.77565,-3.88822 0.18966,-4.17118 2.14524,-0.62884 5.58513,-2.68807 7.61579,-4.55904 4.96201,-4.57182 8.31541,-12.47697 6.81554,-16.06666 -0.73602,-1.76156 -4.89469,-5.80492 -6.52325,-6.3424 -2.80476,-0.92565 -5.68891,0.13069 -9.83266,3.60131 -1.93395,1.61978 -2.6489,2.03932 -2.85318,1.6743 -0.14992,-0.2679 -0.43607,-1.76255 -0.63588,-3.32145 -0.19981,-1.5589 -0.47149,-3.59775 -0.60373,-4.53079 l -0.24044,-1.69643 h 5.68712 c 7.58093,0 14.93668,0.92892 21.43704,2.70716 1.14404,0.31296 2.56222,0.70034 3.1515,0.86083 4.39016,1.19569 11.50792,4.27558 15.71429,6.79965 1.17857,0.70722 2.39727,1.38061 2.70823,1.49644 0.49619,0.18483 0.54507,1.02051 0.39952,6.82951 -0.3076,12.27604 1.27465,18.8737 6.55586,27.33658 5.55263,8.89783 13.49468,12.87025 16.43121,8.21849 0.72678,-1.1513 0.89043,-2.06367 1.22092,-6.80693 0.64094,-9.19901 1.75108,-13.73321 4.57037,-18.66705 5.3581,-9.37685 7.31929,-14.44519 8.12056,-20.98613 l 0.24903,-2.03288 -3.34214,0.17162 c -5.61745,0.28845 -14.74614,1.26765 -15.18915,1.62928 -0.27219,0.2222 -0.70272,0.17838 -1.23181,-0.12535 -1.57589,-0.90467 -2.16643,-1.66093 -2.22219,-2.8458 l -0.0561,-1.19256 5.53571,-0.29213 c 3.94745,-0.20831 5.77722,-0.4484 6.37746,-0.83682 0.51047,-0.33032 0.71284,-0.6736 0.51421,-0.87224 -0.18016,-0.18015 -2.24644,-0.4829 -4.59176,-0.67277 -2.34531,-0.18986 -5.41423,-0.45133 -6.81982,-0.58103 l -2.55563,-0.23582 -0.6986,1.36172 -0.69861,1.36171 -0.6547,-0.99921 c -0.37508,-0.57244 -0.71956,-1.89581 -0.80655,-3.09845 l -0.15185,-2.09925 h 1.96901 c 2.8184,0 9.60971,-1.35198 12.17042,-2.42283 1.27774,-0.53433 1.39899,-0.53213 1.71417,0.0311 0.58185,1.0397 5.66082,0.74501 5.66082,-0.32845 0,-0.37369 -0.63087,-0.49813 -2.58928,-0.51077 l -2.58929,-0.0167 1.61108,-0.63067 c 5.45271,-2.13449 12.65952,-2.10615 17.83541,0.0702 l 1.188,0.49952 -1.12082,0.82865 c -1.21694,0.89973 -1.42832,1.40862 -0.5851,1.40862 0.69092,0 0.6792,0.10435 -0.20691,1.84127 -0.72753,1.42607 -0.73015,1.50658 -0.1291,3.95923 0.63003,2.57089 0.61363,3.48136 -0.19784,10.98521 -1.17987,10.91057 -1.29011,26.72615 -0.2146,30.78796 1.96698,7.42852 8.80576,15.28347 13.30629,15.28347 2.56858,0 6.06532,-3.57437 11.18038,-11.42857 1.16234,-1.7848 3.5176,-6.6623 4.31143,-8.92857 2.36163,-6.74208 2.95309,-13.36309 1.94614,-21.78572 l -0.53371,-4.46428 0.98325,-0.79904 c 1.2328,-1.00184 9.81762,-5.27654 14.55467,-7.24731 6.22887,-2.59142 16.45612,-5.64389 22.05961,-6.584 7.53638,-1.26441 13.11896,-1.87295 13.11896,-1.43007 0,0.37814 -3.32872,8.21252 -3.6334,8.55147 -0.20072,0.22329 -0.59806,0.17003 -1.10765,-0.14849 -3.3695,-2.10606 -6.75574,-3.22623 -9.7689,-3.23156 -4.21884,-0.007 -5.84719,1.4392 -5.84719,5.19471 0,6.95412 4.06426,13.20442 10.73492,16.50891 1.67296,0.82874 3.23664,1.5068 3.47484,1.5068 0.2382,0 0.4331,0.16391 0.4331,0.36424 0,0.29887 -1.53308,2.9895 -2.01607,3.5383 -0.0738,0.0839 -0.58061,-0.27512 -1.12618,-0.79781 -1.18854,-1.13869 -4.98872,-2.74758 -6.48976,-2.74758 -1.52564,0 -5.33987,1.62375 -6.68673,2.84659 -0.62709,0.56935 -1.56994,1.68463 -2.09523,2.47839 -0.87072,1.31575 -0.95345,1.74122 -0.9367,4.81771 0.0155,2.85732 0.15878,3.6713 0.93455,5.31115 0.5039,1.06516 1.48772,2.52514 2.18626,3.2444 2.21364,2.27932 3.58985,2.76128 11.40843,3.99536 6.499,1.0258 6.24138,0.82097 5.76438,4.58316 -0.1958,1.54432 -0.5133,2.71194 -0.7334,2.69713 -0.21347,-0.0144 -0.87027,-0.33066 -1.45955,-0.7029 -2.37874,-1.50262 -3.57651,-1.85965 -6.31056,-1.88109 -3.08756,-0.0242 -5.73817,0.89202 -9.9075,3.42469 -2.62373,1.5938 -3.36405,2.38937 -3.99426,4.29235 -1.10123,3.32527 2.16713,9.7646 7.49439,14.76548 3.31148,3.1086 7.13987,4.06195 10.6808,2.65976 l 1.89143,-0.749 -0.24303,3.66198 c -0.13368,2.01409 -0.2979,3.72506 -0.36495,3.80216 -0.0671,0.0771 -0.3487,-0.048 -0.62587,-0.27806 -0.27717,-0.23004 -1.84802,-0.9286 -3.49077,-1.55236 -2.96313,-1.12512 -3.03925,-1.13414 -9.59397,-1.13644 -5.00412,-0.002 -7.08372,0.13627 -8.57143,0.56888 -1.08035,0.31416 -2.50702,0.6695 -3.17036,0.78965 -1.98588,0.35968 -7.57094,2.7274 -9.90163,4.19769 -1.19852,0.75607 -2.62444,1.89765 -3.16872,2.53685 -2.18564,2.56682 -4.117,8.55877 -4.11588,12.76932 3.6e-4,1.80343 0.81258,6.66717 1.43116,8.57143 1.02861,3.16646 3.18487,6.70469 7.40008,12.14286 2.5122,3.24107 5.41244,7.04093 6.44497,8.44412 2.08775,2.83722 2.07265,2.42064 0.2352,6.48768 -2.59211,5.7374 -3.22952,7.13469 -3.7712,8.26695 l -0.59057,1.23447 -1.07681,-3.37732 c -1.13323,-3.55422 -2.05574,-6.06292 -3.04773,-8.28804 -0.3284,-0.73661 -0.8606,-1.94197 -1.18267,-2.67857 -0.92849,-2.12349 -4.71047,-9.67637 -5.7492,-11.48155 -1.91829,-3.33375 -5.99574,-8.47114 -9.5133,-11.98633 -3.52422,-3.52185 -4.07538,-4.01367 -6.65896,-5.94197 -3.29524,-2.45949 -11.39452,-7.20167 -12.97916,-7.59939 -1.10059,-0.27623 -1.64592,0.41869 -2.56588,3.26969 -0.56755,1.75888 -0.56883,1.98904 -0.0191,3.42838 0.84224,2.20538 2.48473,3.96937 7.35433,7.89834 5.63202,4.54412 8.36392,7.34616 9.49657,9.74038 0.84197,1.77978 0.91478,2.28383 0.80515,5.57352 -0.1059,3.17788 -0.25754,3.90597 -1.24952,5.99981 -3.50708,7.40257 -7.75109,10.41148 -16.2808,11.54274 -2.21307,0.29351 -2.48786,0.85711 -2.50779,5.14354 -0.0134,2.87912 0.11173,3.67094 0.77816,4.92498 0.7674,1.44402 2.83024,3.57355 4.67513,4.82627 l 0.89286,0.60626 -0.89286,-0.0208 c -0.49107,-0.0114 -1.69642,-0.22068 -2.67857,-0.46504 z m 1.92609,-27.53865 c 2.95253,-3.23053 3.574,-6.5944 1.72826,-9.35467 -0.94933,-1.4197 -4.82767,-4.05091 -6.95813,-4.72065 -1.75896,-0.55295 -2.51499,-0.31569 -4.77099,1.49728 -5.39472,4.33532 -4.47095,9.3663 2.52544,13.75381 0.94179,0.59061 1.82299,0.79527 3.45992,0.80357 l 2.19631,0.0111 1.81919,-1.99049 z"
         id="path196-5-0-0"
         transform="scale(0.26458333)" />
    </g>
    <g
       id="g207-1-3-0-0"
       transform="matrix(0.88633243,0,0,0.88629391,-80.364937,-34.173849)"
       style="stroke:#000000;stroke-width:0.276242;stroke-miterlimit:4;stroke-dasharray:none;stroke-opacity:1">
      <path
         style="fill:url(#radialGradient204-0-9-7-8);fill-opacity:1;stroke:#000000;stroke-width:1.04406;stroke-miterlimit:4;stroke-dasharray:none;stroke-opacity:1"
         d="m 443.10975,322.80938 c -5.54003,-1.37835 -8.27136,-5.12481 -9.13677,-12.53257 l -0.46131,-3.9487 -1.45096,-0.68419 c -0.79803,-0.3763 -2.57596,-1.81367 -3.95096,-3.19416 -2.92314,-2.9348 -4.51087,-5.90254 -5.18085,-9.68391 -0.82587,-4.6612 0.3607,-8.49992 4.03949,-13.0684 l 1.71579,-2.13073 -0.73364,-1.51551 c -1.0129,-2.09236 -0.95382,-4.83892 0.1765,-8.20428 0.67803,-2.01876 0.88296,-3.28147 0.80357,-4.95134 l -0.10657,-2.24151 -1.29589,0.0369 c -1.97531,0.0562 -6.335,2.38698 -8.46785,4.52703 -2.70987,2.71903 -3.4448,3.65438 -5.67434,7.22179 -3.78133,6.05036 -6.66072,12.26854 -9.0344,19.51024 -2.01368,6.14336 -3.89289,15.02285 -3.92065,18.52548 l -0.0127,1.60714 -0.86751,-1.07143 c -1.12185,-1.38557 -6.97661,-9.76604 -6.97661,-9.9863 0,-0.0925 0.63441,-1.14974 1.40981,-2.34943 1.51392,-2.34233 4.97639,-9.24533 5.92444,-11.81137 3.10962,-8.41658 4.45146,-15.06051 4.45146,-22.04081 0,-4.08413 -0.12999,-5.30831 -0.76255,-7.18143 -1.46471,-4.33724 -4.85437,-7.27631 -9.71327,-8.4221 -3.33588,-0.78663 -9.99176,-0.69927 -12.50116,0.16409 -2.72922,0.93899 -5.65184,2.58208 -7.77047,4.36854 -0.96606,0.81459 -1.81862,1.41499 -1.89456,1.33423 -0.42877,-0.45596 -2.00085,-4.13148 -2.00085,-4.67797 0,-0.54966 0.31019,-0.64803 2.05357,-0.65131 4.50834,-0.008 9.22277,-2.49098 11.51536,-6.06367 2.76333,-4.30628 3.63976,-7.46392 2.86759,-10.33153 -0.58626,-2.17721 -3.37316,-4.84591 -6.93682,-6.6426 -2.78578,-1.4045 -2.87903,-1.42403 -7.32142,-1.53247 -4.00013,-0.0977 -4.79709,-0.012 -7.17828,0.77141 -1.47321,0.48469 -2.71323,0.84767 -2.7556,0.80662 -0.0424,-0.041 -0.18662,-1.63371 -0.32057,-3.53926 -0.21296,-3.02965 -0.17231,-3.46464 0.32381,-3.46464 0.31204,0 0.65576,0.14305 0.76382,0.31789 0.10806,0.17484 1.30128,0.58864 2.65161,0.91956 2.02813,0.49702 2.72647,0.52861 4.01506,0.18163 4.66864,-1.25714 8.31571,-4.50208 9.58253,-8.52594 1.25102,-3.97369 -0.56677,-10.39777 -3.83532,-13.5541 l -1.60906,-1.55381 -4.14028,0.16486 c -5.56992,0.2218 -8.32342,1.13952 -11.08208,3.69355 l -2.00859,1.8596 -0.61427,-2.73376 c -0.79215,-3.52542 -0.77565,-3.88822 0.18966,-4.17118 2.14524,-0.62884 5.58513,-2.68807 7.61579,-4.55904 4.96201,-4.57182 8.31541,-12.47697 6.81554,-16.06666 -0.73602,-1.76156 -4.89469,-5.80492 -6.52325,-6.3424 -2.80476,-0.92565 -5.68891,0.13069 -9.83266,3.60131 -1.93395,1.61978 -2.6489,2.03932 -2.85318,1.6743 -0.14992,-0.2679 -0.43607,-1.76255 -0.63588,-3.32145 -0.19981,-1.5589 -0.47149,-3.59775 -0.60373,-4.53079 l -0.24044,-1.69643 h 5.68712 c 7.58093,0 14.93668,0.92892 21.43704,2.70716 1.14404,0.31296 2.56222,0.70034 3.1515,0.86083 4.39016,1.19569 11.50792,4.27558 15.71429,6.79965 1.17857,0.70722 2.39727,1.38061 2.70823,1.49644 0.49619,0.18483 0.54507,1.02051 0.39952,6.82951 -0.3076,12.27604 1.27465,18.8737 6.55586,27.33658 5.55263,8.89783 13.49468,12.87025 16.43121,8.21849 0.72678,-1.1513 0.89043,-2.06367 1.22092,-6.80693 0.64094,-9.19901 1.75108,-13.73321 4.57037,-18.66705 5.3581,-9.37685 7.31929,-14.44519 8.12056,-20.98613 l 0.24903,-2.03288 -3.34214,0.17162 c -5.61745,0.28845 -14.74614,1.26765 -15.18915,1.62928 -0.27219,0.2222 -0.70272,0.17838 -1.23181,-0.12535 -1.57589,-0.90467 -2.16643,-1.66093 -2.22219,-2.8458 l -0.0561,-1.19256 5.53571,-0.29213 c 3.94745,-0.20831 5.77722,-0.4484 6.37746,-0.83682 0.51047,-0.33032 0.71284,-0.6736 0.51421,-0.87224 -0.18016,-0.18015 -2.24644,-0.4829 -4.59176,-0.67277 -2.34531,-0.18986 -5.41423,-0.45133 -6.81982,-0.58103 l -2.55563,-0.23582 -0.6986,1.36172 -0.69861,1.36171 -0.6547,-0.99921 c -0.37508,-0.57244 -0.71956,-1.89581 -0.80655,-3.09845 l -0.15185,-2.09925 h 1.96901 c 2.8184,0 9.60971,-1.35198 12.17042,-2.42283 1.27774,-0.53433 1.39899,-0.53213 1.71417,0.0311 0.58185,1.0397 5.66082,0.74501 5.66082,-0.32845 0,-0.37369 -0.63087,-0.49813 -2.58928,-0.51077 l -2.58929,-0.0167 1.61108,-0.63067 c 5.45271,-2.13449 12.65952,-2.10615 17.83541,0.0702 l 1.188,0.49952 -1.12082,0.82865 c -1.21694,0.89973 -1.42832,1.40862 -0.5851,1.40862 0.69092,0 0.6792,0.10435 -0.20691,1.84127 -0.72753,1.42607 -0.73015,1.50658 -0.1291,3.95923 0.63003,2.57089 0.61363,3.48136 -0.19784,10.98521 -1.17987,10.91057 -1.29011,26.72615 -0.2146,30.78796 1.96698,7.42852 8.80576,15.28347 13.30629,15.28347 2.56858,0 6.06532,-3.57437 11.18038,-11.42857 1.16234,-1.7848 3.5176,-6.6623 4.31143,-8.92857 2.36163,-6.74208 2.95309,-13.36309 1.94614,-21.78572 l -0.53371,-4.46428 0.98325,-0.79904 c 1.2328,-1.00184 9.81762,-5.27654 14.55467,-7.24731 6.22887,-2.59142 16.45612,-5.64389 22.05961,-6.584 7.53638,-1.26441 13.11896,-1.87295 13.11896,-1.43007 0,0.37814 -3.32872,8.21252 -3.6334,8.55147 -0.20072,0.22329 -0.59806,0.17003 -1.10765,-0.14849 -3.3695,-2.10606 -6.75574,-3.22623 -9.7689,-3.23156 -4.21884,-0.007 -5.84719,1.4392 -5.84719,5.19471 0,6.95412 4.06426,13.20442 10.73492,16.50891 1.67296,0.82874 3.23664,1.5068 3.47484,1.5068 0.2382,0 0.4331,0.16391 0.4331,0.36424 0,0.29887 -1.53308,2.9895 -2.01607,3.5383 -0.0738,0.0839 -0.58061,-0.27512 -1.12618,-0.79781 -1.18854,-1.13869 -4.98872,-2.74758 -6.48976,-2.74758 -1.52564,0 -5.33987,1.62375 -6.68673,2.84659 -0.62709,0.56935 -1.56994,1.68463 -2.09523,2.47839 -0.87072,1.31575 -0.95345,1.74122 -0.9367,4.81771 0.0155,2.85732 0.15878,3.6713 0.93455,5.31115 0.5039,1.06516 1.48772,2.52514 2.18626,3.2444 2.21364,2.27932 3.58985,2.76128 11.40843,3.99536 6.499,1.0258 6.24138,0.82097 5.76438,4.58316 -0.1958,1.54432 -0.5133,2.71194 -0.7334,2.69713 -0.21347,-0.0144 -0.87027,-0.33066 -1.45955,-0.7029 -2.37874,-1.50262 -3.57651,-1.85965 -6.31056,-1.88109 -3.08756,-0.0242 -5.73817,0.89202 -9.9075,3.42469 -2.62373,1.5938 -3.36405,2.38937 -3.99426,4.29235 -1.10123,3.32527 2.16713,9.7646 7.49439,14.76548 3.31148,3.1086 7.13987,4.06195 10.6808,2.65976 l 1.89143,-0.749 -0.24303,3.66198 c -0.13368,2.01409 -0.2979,3.72506 -0.36495,3.80216 -0.0671,0.0771 -0.3487,-0.048 -0.62587,-0.27806 -0.27717,-0.23004 -1.84802,-0.9286 -3.49077,-1.55236 -2.96313,-1.12512 -3.03925,-1.13414 -9.59397,-1.13644 -5.00412,-0.002 -7.08372,0.13627 -8.57143,0.56888 -1.08035,0.31416 -2.50702,0.6695 -3.17036,0.78965 -1.98588,0.35968 -7.57094,2.7274 -9.90163,4.19769 -1.19852,0.75607 -2.62444,1.89765 -3.16872,2.53685 -2.18564,2.56682 -4.117,8.55877 -4.11588,12.76932 3.6e-4,1.80343 0.81258,6.66717 1.43116,8.57143 1.02861,3.16646 3.18487,6.70469 7.40008,12.14286 2.5122,3.24107 5.41244,7.04093 6.44497,8.44412 2.08775,2.83722 2.07265,2.42064 0.2352,6.48768 -2.59211,5.7374 -3.22952,7.13469 -3.7712,8.26695 l -0.59057,1.23447 -1.07681,-3.37732 c -1.13323,-3.55422 -2.05574,-6.06292 -3.04773,-8.28804 -0.3284,-0.73661 -0.8606,-1.94197 -1.18267,-2.67857 -0.92849,-2.12349 -4.71047,-9.67637 -5.7492,-11.48155 -1.91829,-3.33375 -5.99574,-8.47114 -9.5133,-11.98633 -3.52422,-3.52185 -4.07538,-4.01367 -6.65896,-5.94197 -3.29524,-2.45949 -11.39452,-7.20167 -12.97916,-7.59939 -1.10059,-0.27623 -1.64592,0.41869 -2.56588,3.26969 -0.56755,1.75888 -0.56883,1.98904 -0.0191,3.42838 0.84224,2.20538 2.48473,3.96937 7.35433,7.89834 5.63202,4.54412 8.36392,7.34616 9.49657,9.74038 0.84197,1.77978 0.91478,2.28383 0.80515,5.57352 -0.1059,3.17788 -0.25754,3.90597 -1.24952,5.99981 -3.50708,7.40257 -7.75109,10.41148 -16.2808,11.54274 -2.21307,0.29351 -2.48786,0.85711 -2.50779,5.14354 -0.0134,2.87912 0.11173,3.67094 0.77816,4.92498 0.7674,1.44402 2.83024,3.57355 4.67513,4.82627 l 0.89286,0.60626 -0.89286,-0.0208 c -0.49107,-0.0114 -1.69642,-0.22068 -2.67857,-0.46504 z m 1.92609,-27.53865 c 2.95253,-3.23053 3.574,-6.5944 1.72826,-9.35467 -0.94933,-1.4197 -4.82767,-4.05091 -6.95813,-4.72065 -1.75896,-0.55295 -2.51499,-0.31569 -4.77099,1.49728 -5.39472,4.33532 -4.47095,9.3663 2.52544,13.75381 0.94179,0.59061 1.82299,0.79527 3.45992,0.80357 l 2.19631,0.0111 1.81919,-1.99049 z"
         id="path196-5-0-0-0"
         transform="scale(0.26458333)" />
    </g>
  </g>
</svg>
