<?xml version="1.0" encoding="UTF-8" standalone="no"?>
<!-- Created with Inkscape (http://www.inkscape.org/) -->

<svg
   xmlns:dc="http://purl.org/dc/elements/1.1/"
   xmlns:cc="http://creativecommons.org/ns#"
   xmlns:rdf="http://www.w3.org/1999/02/22-rdf-syntax-ns#"
   xmlns:svg="http://www.w3.org/2000/svg"
   xmlns="http://www.w3.org/2000/svg"
   xmlns:sodipodi="http://sodipodi.sourceforge.net/DTD/sodipodi-0.dtd"
   xmlns:inkscape="http://www.inkscape.org/namespaces/inkscape"
   width="210mm"
   height="297mm"
   viewBox="0 0 210 297"
   version="1.1"
   id="svg8"
   inkscape:version="0.92.3 (2405546, 2018-03-11)"
   sodipodi:docname="drak.svg">
  <defs
     id="defs2" />
  <sodipodi:namedview
     id="base"
     pagecolor="#ffffff"
     bordercolor="#666666"
     borderopacity="1.0"
     inkscape:pageopacity="0.0"
     inkscape:pageshadow="2"
     inkscape:zoom="0.75544332"
     inkscape:cx="396.85039"
     inkscape:cy="561.25984"
     inkscape:document-units="mm"
     inkscape:current-layer="layer1"
     showgrid="false"
     inkscape:window-width="1920"
     inkscape:window-height="1017"
     inkscape:window-x="-8"
     inkscape:window-y="-8"
     inkscape:window-maximized="1" />
  <metadata
     id="metadata5">
    <rdf:RDF>
      <cc:Work
         rdf:about="">
        <dc:format>image/svg+xml</dc:format>
        <dc:type
           rdf:resource="http://purl.org/dc/dcmitype/StillImage" />
        <dc:title></dc:title>
      </cc:Work>
    </rdf:RDF>
  </metadata>
  <g
     inkscape:label="Layer 1"
     inkscape:groupmode="layer"
     id="layer1">
    <path
       style="fill:#000000;stroke-width:0.26458332"
       d="m 105.98066,159.3831 c -5.24206,-1.13876 -7.947284,-4.96589 -8.395009,-11.87659 l -0.15194,-2.34522 -1.084336,-0.54424 c -2.81685,-1.41382 -5.116444,-3.8171 -6.751286,-7.0557 -1.282576,-2.54077 -1.693458,-4.52246 -1.551017,-7.48058 0.103328,-2.1458 0.252826,-2.82192 0.956371,-4.32537 0.837854,-1.79045 1.834822,-3.24529 3.31492,-4.83735 l 0.797494,-0.85782 -0.640969,-1.12656 c -0.966944,-1.69948 -0.875602,-4.59614 0.239445,-7.59334 0.568452,-1.52797 0.829633,-2.69801 0.826863,-3.70417 -0.0061,-2.19601 -0.171966,-2.33966 -2.029172,-1.75693 -5.279972,1.65669 -8.538109,4.99465 -13.321292,13.64768 -4.511699,8.16189 -8.182374,19.86481 -8.889254,28.34089 -0.0965,1.15656 -0.26733,2.15968 -0.37973,2.22914 -0.1124,0.0695 -1.12822,-1.2142 -2.25737,-2.85259 -1.12915,-1.6384 -2.68181,-3.88061 -3.45036,-4.98271 l -1.39736,-2.00381 0.89424,-1.32786 c 2.4241,-3.59958 5.25697,-9.56292 6.85152,-14.42279 2.321637,-7.0759 3.355213,-15.49067 2.435598,-19.82922 -1.347216,-6.355859 -5.643728,-9.298078 -13.642358,-9.34219 -1.92328,-0.01061 -3.91625,0.129739 -4.7625,0.335381 -2.40445,0.58429 -5.64773,2.336014 -7.54662,4.076004 -0.95444,0.874575 -1.80519,1.520295 -1.89055,1.434935 -0.21017,-0.21017 -2.20449,-4.726087 -2.20449,-4.991821 0,-0.116205 0.72695,-0.211281 1.61545,-0.211281 3.33689,0 6.96001,-1.456907 9.20427,-3.701166 1.81942,-1.81942 3.78907,-5.774896 3.94431,-7.920987 0.15338,-2.120577 -0.27399,-3.21016 -1.98331,-5.056428 -1.6786,-1.813097 -5.09478,-3.698988 -7.66824,-4.233238 -2.50364,-0.519753 -6.15527,-0.212746 -8.93903,0.751541 -1.30423,0.451782 -2.41381,0.778944 -2.46573,0.727028 -0.13106,-0.131064 -0.59557,-6.840008 -0.48148,-6.954099 0.0509,-0.05087 0.49444,0.141253 0.98572,0.426931 1.49874,0.871511 3.88061,1.434433 5.33875,1.261737 3.05,-0.361227 6.91887,-3.097003 8.24709,-5.831726 1.31095,-2.699178 1.12497,-6.309029 -0.50703,-9.84128 -1.04524,-2.262282 -2.5261,-3.835354 -4.03651,-4.287887 -1.99109,-0.596546 -7.72433,0.309927 -10.33843,1.63459 -1.36576,0.692084 -3.32134,2.624971 -3.62556,3.583493 -0.10258,0.323191 -0.23428,0.539848 -0.29267,0.48146 -0.1009,-0.100902 -1.43302,-6.422988 -1.43302,-6.800951 0,-0.09893 0.62828,-0.377925 1.39618,-0.619984 4.20044,-1.324073 8.48897,-5.259086 10.45029,-9.588844 2.1267,-4.694826 2.36952,-6.455327 1.15009,-8.338282 -0.89946,-1.388875 -3.21029,-3.640089 -4.56112,-4.44344 -2.25763,-1.342633 -5.44723,-0.263807 -9.17696,3.103949 -1.14697,1.035651 -2.19969,1.883003 -2.33939,1.883003 -0.31043,0 -1.57089,-8.930908 -1.29853,-9.200599 0.31783,-0.314719 10.36489,-0.178012 13.50757,0.183792 9.68486,1.114984 19.32693,4.325734 27.46215,9.144732 l 2.06216,1.221544 -0.21007,1.640369 c -0.39077,3.051359 -0.2254,11.73584 0.2754,14.462316 1.61128,8.772273 7.200973,17.865634 12.675729,20.621 3.350371,1.686192 5.487662,1.28657 6.615721,-1.236983 0.463373,-1.036595 0.591934,-2.022713 0.753883,-5.782514 0.355057,-8.243045 1.39066,-11.752034 5.420558,-18.366757 1.892276,-3.106005 2.992795,-5.501974 4.0659,-8.851984 0.779952,-2.434858 1.736847,-7.490871 1.468498,-7.75922 -0.06639,-0.06639 -3.546435,0.155181 -7.733442,0.49237 -5.50984,0.44372 -7.671187,0.710056 -7.824325,0.964169 -0.321403,0.533328 -0.732528,0.421802 -2.073926,-0.562597 -1.059172,-0.777284 -1.241443,-1.050174 -1.331383,-1.993288 -0.0699,-0.732923 0.02098,-1.196513 0.275973,-1.407968 0.259459,-0.215148 1.73245,-0.315257 4.638678,-0.315257 3.500874,0 4.442238,-0.08299 5.291304,-0.466494 0.568047,-0.256571 0.958112,-0.541192 0.866815,-0.632491 -0.156221,-0.15622 -11.860078,-1.211579 -11.969851,-1.079343 -0.02815,0.03391 -0.306369,0.567677 -0.618254,1.186141 -0.311888,0.618463 -0.681704,1.124479 -0.821817,1.124479 -0.14011,0 -0.560134,-0.602648 -0.933381,-1.339218 -0.539036,-1.063736 -0.662411,-1.648811 -0.599771,-2.84427 l 0.07886,-1.505054 0.926042,-0.06494 c 4.772057,-0.334647 10.239909,-1.468347 12.426916,-2.576587 5.075113,-2.571754 11.535665,-2.977466 17.166525,-1.078029 0.95063,0.320672 1.76033,0.693444 1.79934,0.828381 0.039,0.134938 -0.4302,0.600373 -1.0427,1.034302 -1.00283,0.710469 -1.0544,0.797848 -0.51831,0.878298 0.76323,0.114536 0.74901,0.357499 -0.10636,1.817073 l -0.70167,1.19731 0.44892,1.424133 c 0.7115,2.257125 0.77902,3.7344 0.33201,7.263915 -1.61956,12.787705 -1.79563,25.036204 -0.42957,29.882442 1.1449,4.061623 4.07205,8.351659 7.48974,10.976969 2.29238,1.760895 4.28136,1.931699 6.12441,0.525936 1.20565,-0.919599 4.44279,-4.926883 6.29406,-7.791497 2.89342,-4.477195 4.73327,-8.873664 5.79213,-13.840774 0.97716,-4.583848 0.81755,-12.039562 -0.37279,-17.414066 -0.0849,-0.383137 1.68245,-1.442624 6.15152,-3.687775 8.89081,-4.466533 17.33696,-7.351769 26.59062,-9.083447 4.65828,-0.871723 11.77396,-1.657781 11.77396,-1.300648 0,0.289795 -3.19002,8.110401 -3.4014,8.338816 -0.0947,0.102334 -0.70758,-0.179961 -1.36196,-0.627322 -4.68152,-3.200513 -10.92791,-3.717203 -12.51233,-1.034997 -0.98652,1.670044 -0.3919,6.162557 1.28386,9.699943 1.22893,2.594178 3.95664,5.175705 7.16297,6.77909 1.29061,0.645398 2.73147,1.307126 3.20191,1.470509 l 0.85535,0.297055 -1.07666,1.867435 c -0.59216,1.027086 -1.16315,1.867431 -1.26886,1.867431 -0.10572,0 -0.54191,-0.372141 -0.96932,-0.826981 -0.42741,-0.454837 -1.49148,-1.16912 -2.3646,-1.587291 -2.1927,-1.05016 -4.15559,-1.047427 -6.38845,0.0089 -3.43033,1.622827 -5.12326,4.032983 -5.11779,7.285968 0.006,3.440994 1.01941,5.966209 3.17149,7.901112 1.80255,1.62065 3.39447,2.163593 8.2339,2.808277 5.23147,0.69691 6.4223,1.033711 6.53968,1.849599 0.11114,0.772578 -0.45354,4.834432 -0.73552,5.290684 -0.15634,0.252968 -0.54005,0.100309 -1.52319,-0.606007 -4.05048,-2.909977 -7.40892,-2.712246 -13.44054,0.791327 -2.60777,1.514771 -2.96271,1.820457 -3.62855,3.125089 -0.40427,0.792122 -0.50339,1.398973 -0.41901,2.565487 0.30117,4.163599 5.89764,11.417344 10.00069,12.96217 1.85575,0.698703 4.3677,0.59795 6.07114,-0.24351 0.64698,-0.319598 1.26639,-0.491037 1.37645,-0.380976 0.11006,0.110062 0.0773,1.086231 -0.0728,2.169263 -0.15008,1.083035 -0.23371,2.660547 -0.18583,3.505586 0.0479,0.84504 0.0711,1.536216 0.0515,1.535952 -0.0195,-2.65e-4 -0.98043,-0.47343 -2.13534,-1.051478 -3.04133,-1.522233 -5.83158,-2.119892 -9.90755,-2.122149 -7.8056,-0.0043 -16.73829,2.746044 -20.71104,6.376913 -4.86327,4.444756 -5.67517,14.371646 -1.80446,22.062596 1.02368,2.03401 1.22964,2.32891 4.7131,6.74822 1.31911,1.67349 3.51042,4.53099 4.86959,6.35 1.35918,1.81901 2.56704,3.43275 2.68415,3.58608 0.12177,0.15943 -0.75513,2.36834 -2.04819,5.15938 -1.24362,2.68432 -2.50483,5.44613 -2.80269,6.13736 -0.29786,0.69122 -0.62942,1.25677 -0.73679,1.25677 -0.10738,0 -0.27425,-0.59573 -0.37084,-1.32385 -0.51451,-3.87856 -6.84682,-18.14042 -10.45494,-23.54698 -2.87679,-4.31071 -7.10489,-8.97688 -10.86887,-11.99499 -4.14282,-3.32189 -12.39258,-8.26871 -13.43733,-8.05747 -0.4699,0.095 -1.64483,3.15582 -1.64133,4.27582 0.004,1.20206 1.10038,3.32829 2.28089,4.42239 0.5631,0.52188 2.51163,2.12923 4.33007,3.57188 5.20599,4.13014 6.99204,5.94431 8.14107,8.26919 0.93488,1.89161 0.98776,2.13538 0.98194,4.52654 -0.007,2.94639 -0.5798,4.94049 -2.2293,7.76321 -2.97249,5.08668 -6.93182,7.66429 -12.41866,8.08481 l -2.25731,0.173 -0.36816,1.19062 c -0.2025,0.65484 -0.37673,2.08359 -0.3872,3.175 -0.0306,3.19118 1.3313,5.62427 4.23195,7.56058 0.84072,0.56122 1.64169,1.11374 1.77993,1.22783 0.37238,0.30729 -1.8868,0.21014 -3.55864,-0.15305 z m 0.75957,-23.57795 c 2.4044,-2.24903 3.49531,-5.43779 2.58761,-7.56365 -0.76422,-1.78982 -3.80332,-4.00667 -6.84234,-4.9911 -0.93886,-0.30412 -1.0497,-0.27175 -2.544169,0.74313 -2.389777,1.62286 -3.994083,3.86454 -4.009024,5.60174 -0.0098,1.13925 1.287086,3.34936 2.722893,4.64027 2.13394,1.9186 3.76826,2.74846 5.41856,2.75139 1.29511,0.002 1.49559,-0.0866 2.66647,-1.18178 z M 94.799197,17.819485 c 0.09129,-0.09129 0.0485,-0.283458 -0.09509,-0.427044 -0.171696,-0.171698 -1.026089,-0.152264 -2.495902,0.05677 -1.731224,0.246214 -2.085779,0.363265 -1.573379,0.519424 0.735811,0.224246 3.904459,0.110756 4.164367,-0.149153 z"
       id="path4555"
       inkscape:connector-curvature="0" />
  </g>
</svg>
