<?xml version="1.0" standalone="no"?>
<!DOCTYPE svg PUBLIC "-//W3C//DTD SVG 20010904//EN"
 "http://www.w3.org/TR/2001/REC-SVG-20010904/DTD/svg10.dtd">
<svg version="1.0" xmlns="http://www.w3.org/2000/svg"
 width="895.000000pt" height="855.000000pt" viewBox="0 0 895.000000 855.000000"
 preserveAspectRatio="xMidYMid meet">
<metadata>
Created by potrace 1.16, written by Peter Selinger 2001-2019
</metadata>
<g transform="translate(0.000000,855.000000) scale(0.100000,-0.100000)"
fill="#000000" stroke="none">
<path d="M4240 8533 c-90 -15 -219 -57 -360 -116 -156 -66 -453 -129 -670
-143 l-99 -7 -7 -45 c-14 -90 16 -205 72 -277 15 -20 15 -20 36 5 11 14 31 46
44 72 l24 48 53 -5 c28 -3 183 -17 342 -31 160 -14 294 -29 299 -34 5 -5 -11
-18 -35 -31 -41 -21 -62 -23 -296 -30 -138 -4 -262 -10 -275 -14 -30 -10 -38
-23 -38 -66 0 -65 18 -97 85 -144 69 -49 78 -52 121 -31 42 21 383 56 807 82
l107 7 0 -39 c0 -68 -59 -334 -104 -469 -56 -166 -111 -284 -224 -476 -242
-415 -285 -559 -317 -1068 -9 -135 -20 -265 -26 -290 -15 -69 -59 -141 -103
-170 -34 -22 -50 -26 -110 -25 -128 1 -270 77 -416 224 -246 246 -445 634
-524 1020 -35 171 -46 743 -18 928 l8 52 -165 95 c-528 300 -1130 485 -1706
524 -177 13 -645 14 -662 3 -10 -6 -10 -36 3 -143 18 -158 52 -367 63 -387 8
-14 21 -5 188 135 191 160 353 213 474 155 99 -48 277 -227 315 -317 25 -60
19 -151 -16 -255 -126 -379 -364 -638 -698 -760 -35 -13 -66 -30 -69 -38 -6
-13 63 -367 74 -385 3 -5 18 14 34 41 37 65 139 156 214 192 178 85 534 128
633 76 117 -61 226 -240 266 -438 42 -206 -2 -377 -132 -511 -99 -103 -238
-183 -359 -208 -83 -17 -191 0 -298 47 -44 19 -86 38 -93 41 -9 4 -12 -9 -12
-48 0 -76 21 -332 29 -345 4 -8 39 -2 116 22 151 47 257 64 394 64 141 0 215
-17 337 -74 172 -81 298 -186 359 -297 37 -69 46 -177 20 -265 -36 -125 -128
-292 -213 -386 -46 -51 -154 -122 -240 -157 -90 -37 -184 -58 -304 -66 -54 -4
-98 -11 -98 -16 0 -17 124 -289 131 -289 4 0 41 27 81 60 139 115 282 200 411
244 89 30 186 39 377 33 155 -4 201 -9 282 -30 256 -67 406 -214 478 -467 65
-228 21 -705 -106 -1134 -80 -273 -269 -688 -413 -908 l-69 -107 164 -237
c194 -279 246 -346 256 -336 4 4 15 71 23 147 68 618 296 1283 632 1839 218
360 417 540 686 618 78 22 79 22 94 3 27 -36 11 -200 -32 -329 -67 -201 -69
-352 -5 -460 l28 -49 -72 -84 c-84 -97 -155 -211 -192 -309 -36 -94 -46 -310
-20 -427 59 -264 252 -521 473 -630 71 -35 65 -19 82 -212 13 -154 40 -259 92
-362 92 -183 251 -285 492 -314 130 -16 135 -8 36 59 -46 31 -107 81 -136 111
-100 101 -152 254 -138 406 7 74 31 185 43 197 4 4 59 12 121 18 146 15 245
40 346 89 157 75 286 202 398 390 98 165 128 277 128 473 0 117 -2 132 -29
196 -68 163 -170 272 -518 554 -127 103 -248 206 -268 229 -54 59 -106 172
-106 229 0 63 60 237 88 254 43 26 560 -283 812 -487 254 -205 542 -541 704
-820 200 -346 477 -982 531 -1225 13 -57 27 -107 30 -111 9 -8 19 10 108 204
117 253 187 414 208 473 l19 54 -195 256 c-107 142 -255 336 -330 432 -241
312 -329 532 -342 861 -11 269 48 492 173 658 252 336 1136 556 1666 415 51
-14 148 -51 216 -84 l122 -59 0 104 c0 57 5 150 11 205 8 68 9 104 2 111 -7 7
-31 2 -73 -15 -122 -50 -241 -57 -352 -20 -198 65 -501 414 -581 669 -49 156
-18 274 94 357 72 53 252 152 344 189 214 85 360 72 556 -53 42 -26 83 -48 92
-48 17 0 28 43 47 175 16 118 14 152 -14 171 -37 23 -111 40 -311 69 -359 53
-443 82 -554 194 -106 107 -156 223 -168 395 -11 156 35 276 143 375 68 62
178 123 254 140 141 32 297 -16 427 -133 l51 -46 20 27 c32 45 112 184 112
194 0 5 -6 9 -12 9 -7 0 -66 25 -131 55 -270 124 -449 287 -531 483 -67 159
-103 385 -76 482 29 107 131 157 305 147 152 -8 266 -49 478 -172 26 -15 51
-25 54 -22 3 3 32 70 66 149 59 139 61 146 65 246 l4 103 -64 -6 c-705 -72
-1266 -218 -1873 -489 -183 -82 -491 -240 -569 -292 -54 -35 -57 -40 -52 -68
50 -247 68 -570 46 -811 -45 -470 -272 -951 -652 -1385 -157 -179 -280 -191
-466 -47 -124 95 -267 275 -350 442 -104 208 -127 360 -126 835 1 372 15 608
61 995 35 303 35 412 -2 539 l-28 100 36 67 c42 76 47 109 18 109 -37 0 -30
16 25 58 30 23 54 47 54 53 0 24 -167 80 -315 104 -114 19 -343 18 -455 -2z
m530 -6423 c143 -72 253 -172 281 -257 6 -19 9 -67 7 -106 -5 -109 -55 -207
-157 -308 -84 -85 -88 -86 -195 -79 -178 11 -451 277 -448 436 0 61 41 141
110 215 57 62 159 141 203 157 31 12 100 -8 199 -58z"/>
</g>
</svg>
